<svg xmlns="http://www.w3.org/2000/svg" width="18.191" height="21" viewBox="0 0 18.191 21">
  <path id="Icon_material-hearing" data-name="Icon material-hearing" d="M18.648,20.809a1.923,1.923,0,0,1-.768-.152,3.512,3.512,0,0,1-1.728-2.405,5.954,5.954,0,0,0-2.415-3.032,7.682,7.682,0,0,1-2.345-2.557,6.33,6.33,0,0,1-.829-2.971,5.053,5.053,0,0,1,10.106,0h2.021a6.993,6.993,0,0,0-7.074-7.074A6.993,6.993,0,0,0,8.542,9.692a8.365,8.365,0,0,0,1.081,3.941,9.634,9.634,0,0,0,2.88,3.183,4.07,4.07,0,0,1,1.728,2.072,5.5,5.5,0,0,0,2.759,3.588,4.045,4.045,0,0,0,5.7-3.689H20.669a2.027,2.027,0,0,1-2.021,2.021ZM9.189,3.265,7.754,1.83a11.125,11.125,0,0,0,0,15.725L9.179,16.13a9.1,9.1,0,0,1,.01-12.865Zm3.9,6.427a2.526,2.526,0,1,0,2.526-2.526A2.527,2.527,0,0,0,13.09,9.692Z" transform="translate(-4.5 -1.83)" fill="#fce623"/>
</svg>
